<svg width="16" height="16" viewBox="0 0 16 16" fill="none" xmlns="http://www.w3.org/2000/svg">
<path fill-rule="evenodd" clip-rule="evenodd" d="M4.02286 7.71387C4.02286 8.81787 3.12114 9.71387 2.01143 9.71387C1.74803 9.71462 1.48707 9.66348 1.24344 9.56338C0.999807 9.46328 0.778277 9.31617 0.591498 9.13045C0.40472 8.94473 0.25635 8.72405 0.15486 8.48099C0.053371 8.23793 0.000749343 7.97726 0 7.71387C0 6.60987 0.900571 5.71387 2.01143 5.71387C3.12114 5.71387 4.02286 6.60987 4.02286 7.71387ZM16 7.71387C16 8.81787 15.0994 9.71387 13.9886 9.71387C13.4568 9.71508 12.9463 9.50509 12.5694 9.13005C12.1924 8.75501 11.9798 8.24562 11.9783 7.71387C11.9783 6.60987 12.8789 5.71387 13.9886 5.71387C15.0994 5.71387 16 6.60987 16 7.71387ZM10.0114 7.71387C10.0114 8.81787 9.11086 9.71387 8 9.71387C7.73661 9.71462 7.47564 9.66348 7.23201 9.56338C6.98838 9.46328 6.76685 9.31617 6.58007 9.13045C6.39329 8.94473 6.24492 8.72405 6.14343 8.48099C6.04194 8.23793 5.98932 7.97726 5.98857 7.71387C5.98857 6.60987 6.89143 5.71387 8 5.71387C9.11086 5.71387 10.0114 6.60987 10.0114 7.71387Z" fill="black"/>
</svg>
