<svg width="20" height="20" viewBox="0 0 20 20" fill="none" xmlns="http://www.w3.org/2000/svg">
<path d="M4.16699 17.5V4.16667C4.16699 3.24619 4.91318 2.5 5.83366 2.5H14.167C15.0875 2.5 15.8337 3.24619 15.8337 4.16667V17.5L13.3337 15.8333L11.667 17.5L10.0003 15.8333L8.33366 17.5L6.66699 15.8333L4.16699 17.5" stroke="#6B7280" stroke-width="1.5" stroke-linecap="round" stroke-linejoin="round"/>
<path d="M10.7497 11.667C10.7497 11.2528 10.4139 10.917 9.99967 10.917C9.58546 10.917 9.24967 11.2528 9.24967 11.667H10.7497ZM9.24967 12.917C9.24967 13.3312 9.58546 13.667 9.99967 13.667C10.4139 13.667 10.7497 13.3312 10.7497 12.917H9.24967ZM11.6663 7.41699C12.0806 7.41699 12.4163 7.08121 12.4163 6.66699C12.4163 6.25278 12.0806 5.91699 11.6663 5.91699V7.41699ZM10.4163 9.16699V8.41699V9.16699ZM10.4163 11.667V12.417V11.667ZM8.33301 10.917C7.91879 10.917 7.58301 11.2528 7.58301 11.667C7.58301 12.0812 7.91879 12.417 8.33301 12.417V10.917ZM10.7497 5.41699C10.7497 5.00278 10.4139 4.66699 9.99967 4.66699C9.58546 4.66699 9.24967 5.00278 9.24967 5.41699H10.7497ZM9.24967 6.66699C9.24967 7.08121 9.58546 7.41699 9.99967 7.41699C10.4139 7.41699 10.7497 7.08121 10.7497 6.66699H9.24967ZM9.24967 11.667V12.917H10.7497V11.667H9.24967ZM11.6663 5.91699H9.58301V7.41699H11.6663V5.91699ZM9.58301 5.91699C8.47844 5.91699 7.58301 6.81242 7.58301 7.91699H9.08301C9.08301 7.64085 9.30687 7.41699 9.58301 7.41699V5.91699ZM7.58301 7.91699C7.58301 9.02156 8.47844 9.91699 9.58301 9.91699V8.41699C9.30687 8.41699 9.08301 8.19313 9.08301 7.91699H7.58301ZM9.58301 9.91699H10.4163V8.41699H9.58301V9.91699ZM10.4163 9.91699C10.6925 9.91699 10.9163 10.1409 10.9163 10.417H12.4163C12.4163 9.31242 11.5209 8.41699 10.4163 8.41699V9.91699ZM10.9163 10.417C10.9163 10.6931 10.6925 10.917 10.4163 10.917V12.417C11.5209 12.417 12.4163 11.5216 12.4163 10.417H10.9163ZM10.4163 10.917H8.33301V12.417H10.4163V10.917ZM9.24967 5.41699V6.66699H10.7497V5.41699H9.24967Z" fill="#6B7280"/>
</svg>
